# xmcd
#
# Track frame offsets:
#	150
#	12387
#	22787
#	35010
#	45246
#	56329
#	71184
#	81405
#	94231
#	106675
#	119433
#	132122
#	143889
#	156913
#	168109
#	181315
#	189034
#	200796
#	212187
#	222866
#	232624
#	245324
#
# Disc length: 3408 seconds
#
# Revision: 0
# Processed by: cddbd v1.5.2PL0 Copyright (c) Steve Scherf et al.
# Submitted via: EasyCDDAExtractor 2010.4.0.0
#
DISCID=250d4e16
DTITLE=Various Artist - Ladies of Country - CD2
DYEAR=1900
DGENRE=Country
TTITLE0=Lynn Anderson - Stand By Your Man
TTITLE1=Patsy Cline - Three Cigarettes In The Ashtray
TTITLE2=Dolly Parton - Letter To Heaven
TTITLE3=Billie Jo Spears - It Makes No Difference Now
TTITLE4=Janie Fricke - Don't Worry About Me Baby
TTITLE5=Juice Newton - Queen Of Hearts
TTITLE6=Lynn Anderson - Fool Me
TTITLE7=Patsy Cline - Yes I Understand
TTITLE8=Dolly Parton - Two Little Orphans
TTITLE9=Billie Jo Spears - Dallas
TTITLE10=Janie Fricke - Your Hearts Not In It
TTITLE11=Lynn Anderson - How Can I Love You
TTITLE12=Dolly Parton - Little Blossoms
TTITLE13=Patsy Cline - Just Out Of Reach
TTITLE14=Lynn Anderson - Keep Me In Mind
TTITLE15=Dolly Parton  - Puppy Love
TTITLE16=Donna Fargo - The Happiest Girl In The Whole USA
TTITLE17=Lynn Anderson - Listen To A Country Song
TTITLE18=Patsy Cline - I Cried All The Way To The Alter
TTITLE19=Dolly Parton - Girl Left Alone
TTITLE20=Lynn Anderson - Top Of The World
TTITLE21=Patsy Cline - Honky Tonk Merry Go Round
EXTD=
EXTT0=
EXTT1=
EXTT2=
EXTT3=
EXTT4=
EXTT5=
EXTT6=
EXTT7=
EXTT8=
EXTT9=
EXTT10=
EXTT11=
EXTT12=
EXTT13=
EXTT14=
EXTT15=
EXTT16=
EXTT17=
EXTT18=
EXTT19=
EXTT20=
EXTT21=
PLAYORDER=
